HIERARCHY
ROOT Hips
{
	OFFSET 0.000000 0.000000 0.000000
	CHANNELS 6 Xposition Yposition Zposition Zrotation Yrotation Xrotation 
	JOINT LHipJoint
	{
		OFFSET 0.000000 0.000000 0.000000
		CHANNELS 3 Zrotation Yrotation Xrotation
		JOINT LeftUpLeg
		{
			OFFSET 1.363060 -1.794630 0.839290
			CHANNELS 3 Zrotation Yrotation Xrotation
			JOINT LeftLeg
			{
				OFFSET 2.448110 -6.726130 0.000000
				CHANNELS 3 Zrotation Yrotation Xrotation
				JOINT LeftFoot
				{
					OFFSET 2.562200 -7.039590 0.000000
					CHANNELS 3 Zrotation Yrotation Xrotation
					JOINT LeftToeBase
					{
						OFFSET 0.157640 -0.433110 2.322550
						CHANNELS 3 Zrotation Yrotation Xrotation
						End Site
						{
							OFFSET 0.000000 0.000000 0.000000
						}
					}
				}
			}
		}
	}
	JOINT RHipJoint
	{
		OFFSET 0.000000 0.000000 0.000000
		CHANNELS 3 Zrotation Yrotation Xrotation
		JOINT RightUpLeg
		{
			OFFSET -1.305520 -1.794630 0.839290
			CHANNELS 3 Zrotation Yrotation Xrotation
			JOINT RightLeg
			{
				OFFSET -2.542530 -6.985550 0.000000
				CHANNELS 3 Zrotation Yrotation Xrotation
				JOINT RightFoot
				{
					OFFSET -2.568260 -7.056230 0.000000
					CHANNELS 3 Zrotation Yrotation Xrotation
					JOINT RightToeBase
					{
						OFFSET -0.164730 -0.452590 2.363150
						CHANNELS 3 Zrotation Yrotation Xrotation
						End Site
						{
							OFFSET 0.000000 0.000000 0.000000
						}
					}
				}
			}
		}
	}
	JOINT LowerBack
	{
		OFFSET 0.000000 0.000000 0.000000
		CHANNELS 3 Zrotation Yrotation Xrotation
		JOINT Spine
		{
			OFFSET 0.028270 2.035590 -0.193380
			CHANNELS 3 Zrotation Yrotation Xrotation
			JOINT Spine1
			{
				OFFSET 0.056720 2.048850 -0.042750
				CHANNELS 3 Zrotation Yrotation Xrotation
				JOINT Neck
				{
					OFFSET 0.000000 0.000000 0.000000
					CHANNELS 3 Zrotation Yrotation Xrotation
					JOINT Neck1
					{
						OFFSET -0.054170 1.746240 0.172020
						CHANNELS 3 Zrotation Yrotation Xrotation
						JOINT Head
						{
							OFFSET 0.104070 1.761360 -0.123970
							CHANNELS 3 Zrotation Yrotation Xrotation
							End Site
							{
								OFFSET 0.000000 0.000000 0.000000
							}
						}
					}
				}
				JOINT LeftShoulder
				{
					OFFSET 0.000000 0.000000 0.000000
					CHANNELS 3 Zrotation Yrotation Xrotation
					JOINT LeftArm
					{
						OFFSET 3.362410 1.200890 -0.311210
						CHANNELS 3 Zrotation Yrotation Xrotation
						JOINT LeftForeArm
						{
							OFFSET 4.983000 -0.000000 -0.000000
							CHANNELS 3 Zrotation Yrotation Xrotation
							JOINT LeftHand
							{
								OFFSET 3.483560 -0.000000 -0.000000
								CHANNELS 3 Zrotation Yrotation Xrotation
								JOINT LeftFingerBase
								{
									OFFSET 0.000000 0.000000 0.000000
									CHANNELS 3 Zrotation Yrotation Xrotation
									JOINT LeftHandIndex1
									{
										OFFSET 0.715260 -0.000000 -0.000000
										CHANNELS 3 Zrotation Yrotation Xrotation
										End Site
										{
											OFFSET 0.000000 0.000000 0.000000
										}
									}
								}
								JOINT LThumb
								{
									OFFSET 0.000000 0.000000 0.000000
									CHANNELS 3 Zrotation Yrotation Xrotation
									End Site
									{
										OFFSET 0.000000 0.000000 0.000000
									}
								}
							}
						}
					}
				}
				JOINT RightShoulder
				{
					OFFSET 0.000000 0.000000 0.000000
					CHANNELS 3 Zrotation Yrotation Xrotation
					JOINT RightArm
					{
						OFFSET -3.136600 1.374050 -0.404650
						CHANNELS 3 Zrotation Yrotation Xrotation
						JOINT RightForeArm
						{
							OFFSET -5.241900 -0.000000 -0.000000
							CHANNELS 3 Zrotation Yrotation Xrotation
							JOINT RightHand
							{
								OFFSET -3.444170 -0.000000 -0.000000
								CHANNELS 3 Zrotation Yrotation Xrotation
								JOINT RightFingerBase
								{
									OFFSET 0.000000 0.000000 0.000000
									CHANNELS 3 Zrotation Yrotation Xrotation
									JOINT RightHandIndex1
									{
										OFFSET -0.622530 -0.000000 -0.000000
										CHANNELS 3 Zrotation Yrotation Xrotation
										End Site
										{
											OFFSET 0.000000 0.000000 0.000000
										}
									}
								}
								JOINT RThumb
								{
									OFFSET 0.000000 0.000000 0.000000
									CHANNELS 3 Zrotation Yrotation Xrotation
									End Site
									{
										OFFSET 0.000000 0.000000 0.000000
									}
								}
							}
						}
					}
				}
			}
		}
	}
}
MOTION
Frames: 8
Frame Time: 0.008333
0.877643 17.330540 1.035277 0.777844 -83.904505 9.945321 -9.845851 1.738843 4.746814 -10.000238 -9.784098 -17.584466 -1.777690 -0.448381 11.493227 1.370520 7.795755 -5.283368 0.470400 -0.000000 -32.819500 10.319711 -0.433283 0.160257 7.098696 -5.328247 -35.139689 -0.773214 -3.190385 52.341215 -1.532845 -7.217135 11.180953 -2.328200 0.000000 -79.353500 -0.164734 -2.564064 -5.637442 -0.695188 -2.790524 -3.959465 -6.579689 -2.910653 0.430725 10.213398 -8.584342 -6.368348 -3.454178 -0.289689 0.412272 0.000000 0.000000 0.000000 -3.677290 2.528354 1.245184 -70.577466 1.966272 11.226511 -3.258622 -21.954941 0.004350 1.973261 -3.184203 -0.056621 -0.070468 0.015068 -0.000000 0.000000 0.000000 0.000000 0.000000 0.000000 0.000000 15.142463 -6.670940 0.697714 70.923794 1.729878 -4.249973 3.669802 19.031350 0.023689 -0.588253 12.980266 -0.078162 0.103212 -0.093278 -0.000000 0.000000 0.000000 0.000000 0.000000 0.000000 0.000000 
0.911123 17.331293 1.076139 -1.102615 -83.789812 11.548532 -9.940042 1.663857 4.498549 -9.969562 -9.191243 -17.318168 -1.789207 -0.428090 11.569675 1.289963 7.335598 -5.235846 0.439800 -0.000000 -33.256000 10.372743 -0.107260 -0.005913 7.043581 -5.569974 -38.061119 -1.134785 -3.439678 57.014945 -1.626494 -6.840384 15.519508 -2.470400 0.000000 -79.471899 0.068969 -2.662657 -5.153080 -0.648272 -2.889597 -3.881202 -6.582936 -3.004855 0.383095 10.193639 -8.476842 -6.344278 -3.454481 -0.289040 0.414660 0.000000 0.000000 0.000000 -3.643291 2.287405 1.297890 -70.548806 1.751234 11.191504 -3.254359 -22.008648 0.004306 2.065259 -3.211724 -0.059714 -0.070969 0.017752 -0.000000 0.000000 0.000000 0.000000 0.000000 0.000000 0.000000 15.093369 -6.651087 0.742722 70.924097 1.704523 -4.589118 3.688237 18.585752 0.023441 -0.484108 12.843725 -0.065485 0.102597 -0.092495 -0.000000 0.000000 0.000000 0.000000 0.000000 0.000000 0.000000 
0.947452 17.332573 1.115471 -3.170817 -83.701335 13.285517 -10.039424 1.581139 4.219061 -9.908772 -8.552530 -16.969048 -1.795313 -0.404694 11.628146 1.213755 6.900034 -5.186645 0.410399 0.000000 -33.686000 10.386413 0.244358 -0.183888 7.027813 -5.773477 -40.937914 -1.427808 -3.666644 61.518088 -1.739256 -6.281526 19.729213 -2.450500 -0.000001 -78.614400 0.325572 -2.767832 -4.608660 -0.598153 -2.994640 -3.794413 -6.591056 -3.104890 0.324203 10.166592 -8.341295 -6.304916 -3.458817 -0.288769 0.420454 0.000000 0.000000 0.000000 -3.611513 2.009351 1.357148 -70.482166 1.559734 11.204003 -3.249803 -22.100958 0.004247 2.136867 -3.226931 -0.062108 -0.071461 0.020348 -0.000000 0.000000 0.000000 0.000000 0.000000 0.000000 0.000000 15.048036 -6.608052 0.789850 70.938712 1.682643 -4.952944 3.703393 18.141039 0.023134 -0.394371 12.702347 -0.054609 0.101868 -0.091852 -0.000000 0.000000 0.000000 0.000000 0.000000 0.000000 0.000000 
0.985983 17.334441 1.153334 -5.473874 -83.635981 15.208746 -10.142822 1.492494 3.920883 -9.804732 -7.914270 -16.547876 -1.792098 -0.376647 11.680035 1.147715 6.522968 -5.142557 0.383800 0.000001 -34.086200 10.364716 0.606530 -0.381001 7.066862 -5.951765 -43.768376 -1.661234 -3.890802 65.847537 -1.848378 -5.554054 23.573265 -2.255600 -0.000000 -77.103000 0.608976 -2.876101 -4.012967 -0.544218 -3.102567 -3.699750 -6.603566 -3.207641 0.259014 10.132265 -8.186826 -6.256234 -3.466710 -0.288781 0.428051 0.000000 0.000000 0.000000 -3.585508 1.719770 1.421722 -70.373882 1.360276 11.302524 -3.245533 -22.203819 0.004190 2.189011 -3.235921 -0.063799 -0.072017 0.022860 -0.000000 0.000000 0.000000 0.000000 0.000000 0.000000 0.000000 15.007128 -6.548594 0.836839 70.962171 1.660420 -5.322894 3.715152 17.708973 0.022782 -0.325482 12.560181 -0.046333 0.101086 -0.091304 -0.000000 0.000000 0.000000 0.000000 0.000000 0.000000 0.000000 
1.025986 17.337054 1.190007 -8.064156 -83.585284 17.379896 -10.250794 1.399726 3.617290 -9.643979 -7.317895 -16.072630 -1.776410 -0.342597 11.740169 1.095817 6.227975 -5.111098 0.360500 -0.000000 -34.438500 10.312887 0.967159 -0.601449 7.177737 -6.116017 -46.559261 -1.858541 -4.126278 70.003712 -1.936071 -4.701333 26.871163 -1.903401 -0.000000 -75.369299 0.925492 -2.983593 -3.379812 -0.485603 -3.210211 -3.600111 -6.620457 -3.310017 0.187101 10.089916 -8.019860 -6.198642 -3.478318 -0.289115 0.437527 0.000000 0.000000 0.000000 -3.570160 1.411180 1.490592 -70.223925 1.159356 11.483619 -3.241168 -22.312404 0.004140 2.222047 -3.242360 -0.064993 -0.072580 0.025224 0.000000 0.000000 0.000000 0.000000 0.000000 0.000000 0.000000 14.970219 -6.477451 0.884356 70.988037 1.624154 -5.683942 3.724022 17.302934 0.022401 -0.278601 12.420766 -0.040656 0.100296 -0.090808 -0.000000 0.000000 0.000000 0.000000 0.000000 0.000000 0.000000 
1.066688 17.340480 1.225769 -10.955872 -83.536698 19.824784 -10.364211 1.304007 3.320275 -9.418435 -6.800606 -15.561217 -1.746252 -0.301888 11.819850 1.060739 6.032451 -5.097592 0.341100 -0.000000 -34.730801 10.235470 1.319589 -0.846376 7.371522 -6.273670 -49.321698 -2.047839 -4.379649 73.988512 -1.992466 -3.777299 29.511598 -1.432499 0.000000 -73.839700 1.279053 -3.087674 -2.724008 -0.421693 -3.315483 -3.497582 -6.641131 -3.409955 0.111989 10.040574 -7.851724 -6.137123 -3.493261 -0.289709 0.447678 0.000000 0.000000 0.000000 -3.568543 1.094425 1.562187 -70.035484 0.940545 11.757382 -3.236714 -22.406324 0.004105 2.241758 -3.251545 -0.065785 -0.073169 0.027441 0.000000 0.000000 0.000000 0.000000 0.000000 0.000000 0.000000 14.938561 -6.404604 0.931497 71.008207 1.567875 -6.015602 3.730795 16.934381 0.022010 -0.252684 12.286472 -0.037278 0.099541 -0.090295 -0.000000 0.000000 0.000000 0.000000 0.000000 0.000000 0.000000 
1.107381 17.344765 1.260978 -14.126354 -83.472747 22.533958 -10.484601 1.206062 3.040991 -9.124061 -6.391664 -15.036306 -1.700835 -0.254437 11.930559 1.043366 5.942818 -5.106133 0.325400 -0.000000 -34.955900 10.134467 1.661143 -1.112215 7.653311 -6.426621 -52.071806 -2.253737 -4.650676 77.802778 -2.014174 -2.827906 31.442406 -0.886500 0.000001 -72.755300 1.672572 -3.186454 -2.064265 -0.352022 -3.417147 -3.396008 -6.665316 -3.506401 0.032706 9.985049 -7.689582 -6.071829 -3.511567 -0.290602 0.458741 0.000000 0.000000 0.000000 -3.583099 0.754583 1.635316 -69.814315 0.718090 12.099036 -3.231489 -22.485165 0.004084 2.252916 -3.265917 -0.066378 -0.073711 0.029470 0.000000 0.000000 0.000000 0.000000 0.000000 0.000000 0.000000 14.912531 -6.336619 0.979511 71.016026 1.477715 -6.306163 3.736599 16.614507 0.021621 -0.241123 12.157657 -0.035600 0.098833 -0.089706 -0.000000 0.000000 0.000000 0.000000 0.000000 0.000000 0.000000 
1.146902 17.349877 1.295725 -17.452521 -83.374358 25.408329 -10.610941 1.106600 2.791895 -8.766933 -6.122163 -14.527953 -1.640699 -0.201729 12.079364 1.044308 5.964323 -5.138064 0.313600 -0.000001 -35.108100 10.010415 1.992462 -1.389027 8.015285 -6.571072 -54.837852 -2.492705 -4.934960 81.441311 -2.002414 -1.884706 32.670999 -0.305400 0.000000 -72.324800 2.101172 -3.280626 -1.426573 -0.276906 -3.516345 -3.298224 -6.691502 -3.600585 -0.042271 9.927088 -7.548818 -6.012213 -3.532097 -0.291633 0.468365 0.000000 0.000000 0.000000 -3.611444 0.422175 1.707427 -69.568483 0.456721 12.523097 -3.226283 -22.518803 0.004078 2.264211 -3.286992 -0.067171 -0.074317 0.031397 0.000000 0.000000 0.000000 0.000000 0.000000 0.000000 0.000000 14.895356 -6.288885 1.025098 71.003833 1.352954 -6.529331 3.742455 16.351729 0.021248 -0.239975 12.032043 -0.035119 0.098215 -0.088920 -0.000000 0.000000 0.000000 0.000000 0.000000 0.000000 0.000000 
